<svg width="25" height="11" viewBox="0 0 25 11" fill="none" xmlns="http://www.w3.org/2000/svg">
<g clip-path="url(#clip0_42_36)">
<path d="M11.1049 10.9982C8.34087 10.9982 5.57684 10.9993 2.814 10.9982C0.994717 10.997 0.00118985 10.053 0 8.33021C0 6.40959 0 4.48897 0.00118985 2.56836C0.00237971 1.00174 1.02803 0.00828143 2.68431 0.00603378C8.33016 -0.000709175 13.976 -0.000709175 19.6219 0.00603378C21.2532 0.00828143 22.2717 0.988257 22.274 2.53015C22.2788 4.50695 22.2764 6.48264 22.274 8.45945C22.2729 10.0238 21.246 10.9937 19.5719 10.997C16.7484 11.0027 13.926 10.9982 11.1025 10.9982H11.1049ZM11.1977 1.35575C8.41464 1.35575 5.63276 1.3535 2.8497 1.35687C1.78835 1.358 1.4421 1.69627 1.44091 2.70883C1.44091 4.61035 1.43734 6.51186 1.4421 8.41225C1.44448 9.26972 1.8288 9.64171 2.74023 9.64171C8.34444 9.64621 13.9498 9.64621 19.554 9.64171C20.4571 9.64171 20.8403 9.26186 20.8415 8.40438C20.845 6.52197 20.8427 4.63956 20.8415 2.75603C20.8415 1.66817 20.5143 1.35687 19.366 1.35575C16.6425 1.35462 13.9189 1.35575 11.1953 1.35575H11.1977Z" fill="white"/>
<path d="M23.3486 7.99312V3.04492C24.1732 3.12921 24.8835 4.12604 24.9906 5.3364C25.0906 6.46809 24.3196 7.7515 23.3486 7.99312Z" fill="white"/>
<path d="M11.0726 8.62828C8.54778 8.62828 6.02172 8.62941 3.49685 8.62828C2.64492 8.62828 2.50452 8.49005 2.50333 7.6809C2.50214 6.20869 2.50095 4.73648 2.50333 3.26427C2.50452 2.52254 2.65563 2.3742 3.43617 2.3742C8.58585 2.37195 13.7355 2.37083 18.884 2.3742C19.6289 2.3742 19.7812 2.52591 19.7824 3.23505C19.7859 4.72636 19.7847 6.21656 19.7824 7.70787C19.7824 8.49118 19.6455 8.62604 18.8257 8.62716C16.2414 8.63053 13.657 8.62828 11.0715 8.62828H11.0726Z" fill="white"/>
</g>
<defs>
<clipPath id="clip0_42_36">
<rect width="25" height="11" fill="white"/>
</clipPath>
</defs>
</svg>
