<?xml version="1.0" encoding="utf-8"?>
<!-- Generator: Adobe Illustrator 27.9.2, SVG Export Plug-In . SVG Version: 6.00 Build 0)  -->
<svg version="1.1" id="Calque_1" xmlns="http://www.w3.org/2000/svg" xmlns:xlink="http://www.w3.org/1999/xlink" x="0px" y="0px"
	 viewBox="0 0 100 107" style="enable-background:new 0 0 100 107;" xml:space="preserve">
<style type="text/css">
	.st0{fill:#1E89FE;}
</style>
<path class="st0" d="M17.4,46.7c0-9.5-0.1-19,0-28.4c0.1-7.8,3.9-11.5,11.7-11.8c0.2,0,0.3,0,0.5,0C51,5.9,51.1,5.7,65.9,20.9
	c16.8,17.2,13.6,10,13.9,33.2c0.1,7,0.1,14,0,21c-0.2,8.1-3.7,11.6-11.7,11.7c-13,0.1-25.9,0.1-38.9,0c-7.9,0-11.7-3.8-11.8-11.6
	C17.3,65.6,17.4,56.2,17.4,46.7L17.4,46.7z M48.3,81.4c6.3,0,12.6,0,19,0c4.7,0,7.1-2.2,7.1-7c0-10-0.1-20,0-29.9
	c0-2.9-1.2-3.8-3.9-3.7c-5.3,0.1-10.6,0.1-16,0c-7-0.1-8.5-1.6-8.6-8.5c0-5.5-0.1-11,0-16.5c0.1-2.8-0.9-3.9-3.7-3.8
	c-4.2,0.2-8.3,0-12.5,0.1c-5.1,0.1-6.9,1.7-6.9,7c-0.1,18.5,0,36.9,0,55.4c0,4.8,2.3,7,7,7C36,81.3,42.2,81.4,48.3,81.4L48.3,81.4z
	 M50.9,24.4c0.3,12.4-2.2,11.3,10.8,11.4c2.5,0,5,0,7.5,0c0.8,0,1.9-0.2,2.2-0.7c0.7-1.1-0.6-1.7-1.2-2.3C66.5,28.9,62.9,25,59,21.3
	c-2.3-2.2-4.6-6.9-7.2-5.7C49.3,16.7,51.5,21.7,50.9,24.4z"/>
</svg>
