<?xml version="1.0" encoding="UTF-8"?>
<svg id="Calque_1" data-name="Calque 1" xmlns="http://www.w3.org/2000/svg" viewBox="0 0 72 73">
  <defs>
    <style>
      .cls-1, .cls-2, .cls-3 {
        stroke-width: 0px;
      }

      .cls-2 {
        fill: red;
      }

      .cls-3 {
        fill: #fff;
      }
    </style>
  </defs>
  <path class="cls-3" d="m13.5,0h45c7.46,0,13.5,6.03,13.5,13.48v46.05c0,7.44-6.04,13.48-13.5,13.48H13.5c-7.46,0-13.5-6.03-13.5-13.48V13.48C0,6.03,6.04,0,13.5,0Z"/>
  <path class="cls-2" d="m22.42,17.05v-7.27h4.51v.94h-3.41v2.22h3.09v.94h-3.09v3.17h-1.1Zm5.71,0v-5.45h1.03v.87h.06c.1-.29.27-.52.53-.69.25-.17.54-.26.86-.26.07,0,.14,0,.23,0,.09,0,.16.01.22.02v1.02s-.12-.02-.23-.04c-.11-.02-.22-.02-.33-.02-.25,0-.47.05-.67.16-.19.1-.35.25-.46.44-.11.18-.17.4-.17.63v3.33h-1.06Zm3.84,0v-5.45h1.06v5.45h-1.06Zm.54-6.3c-.18,0-.34-.06-.48-.18-.13-.13-.2-.27-.2-.45s.07-.32.2-.45c.13-.13.29-.19.48-.19s.34.06.47.19c.13.12.2.27.2.45s-.07.32-.2.45c-.13.12-.29.18-.47.18Zm4,6.4c-.44,0-.83-.11-1.18-.34-.34-.23-.61-.55-.81-.97-.19-.42-.29-.93-.29-1.52s.1-1.09.29-1.51c.2-.42.47-.74.82-.96.35-.22.74-.33,1.18-.33.34,0,.61.06.82.17.21.11.37.24.48.39.12.15.21.28.27.39h.06v-2.7h1.06v7.27h-1.04v-.85h-.09c-.06.12-.16.25-.28.4-.12.15-.28.28-.49.39-.21.11-.48.17-.81.17Zm.23-.91c.31,0,.56-.08.77-.24.21-.16.37-.39.48-.68.11-.29.17-.62.17-1.01s-.05-.71-.16-.99c-.11-.28-.27-.51-.48-.66-.21-.16-.47-.24-.78-.24s-.59.08-.8.25-.37.39-.48.68c-.11.29-.16.61-.16.97s.05.69.16.98c.11.29.27.52.48.69.22.17.48.25.8.25Zm5.57.92c-.35,0-.66-.06-.94-.19-.28-.13-.5-.32-.66-.56-.16-.25-.24-.55-.24-.91,0-.31.06-.56.18-.76.12-.2.28-.36.48-.47.2-.12.43-.2.67-.26.25-.06.5-.1.76-.14.33-.04.59-.07.8-.09.2-.03.35-.07.44-.12.09-.06.14-.15.14-.28v-.02c0-.31-.09-.55-.26-.72-.17-.17-.43-.26-.77-.26s-.64.08-.85.24c-.2.16-.34.33-.42.52l-1-.23c.12-.33.29-.6.52-.8.23-.21.49-.36.79-.45.3-.09.61-.14.94-.14.22,0,.45.03.69.08.25.05.48.14.69.28.22.14.39.33.53.58.14.25.21.57.21.97v3.62h-1.04v-.75h-.04c-.07.14-.17.27-.31.4-.14.13-.31.24-.53.33-.22.09-.47.13-.77.13Zm.23-.85c.29,0,.54-.06.75-.17.21-.12.37-.27.48-.45.11-.19.17-.39.17-.61v-.7s-.11.07-.22.11c-.11.03-.23.06-.37.08-.14.02-.27.04-.4.06-.13.02-.24.03-.33.04-.21.03-.39.07-.56.13-.17.06-.3.15-.4.27-.1.11-.15.27-.15.45,0,.26.1.46.29.6.19.13.44.2.74.2Zm4.35,2.78c-.16,0-.3-.01-.43-.04-.13-.02-.23-.05-.29-.08l.26-.87c.19.05.37.07.52.07s.29-.06.4-.17c.12-.11.22-.28.31-.52l.13-.36-2-5.53h1.14l1.38,4.23h.06l1.38-4.23h1.14l-2.25,6.18c-.1.28-.24.52-.4.72-.16.2-.35.35-.58.45-.22.1-.48.15-.77.15Z"/>
  <path class="cls-1" d="m36.37,51.32c-1.3,0-2.45-.26-3.48-.78-1.02-.53-1.83-1.26-2.43-2.18-.6-.92-.92-1.98-.95-3.17h2.06c.07,1.23.55,2.25,1.45,3.05.9.79,2.02,1.18,3.35,1.18,1.04,0,1.96-.25,2.77-.74.81-.5,1.44-1.18,1.9-2.05.46-.87.69-1.85.69-2.94,0-1.14-.25-2.14-.74-3-.48-.87-1.14-1.55-1.98-2.05-.83-.49-1.75-.74-2.78-.74-.78,0-1.55.12-2.3.39-.75.27-1.38.61-1.88,1.02l-2.12-.27,1.4-11.31h11.5v1.91h-9.72l-.93,7.78h.11c.52-.43,1.14-.78,1.88-1.06.74-.27,1.53-.41,2.35-.41,1.37,0,2.6.33,3.69.99,1.1.66,1.97,1.57,2.6,2.73.64,1.15.97,2.48.97,3.98s-.32,2.78-.97,3.94c-.64,1.15-1.52,2.06-2.64,2.73-1.11.67-2.39,1-3.82,1Z"/>
</svg>