<?xml version="1.0" encoding="UTF-8"?>
<svg id="Calque_1" data-name="Calque 1" xmlns="http://www.w3.org/2000/svg" viewBox="0 0 68.85 54.9">
  <defs>
    <style>
      .cls-1 {
        fill: #1383fe;
      }

      .cls-1, .cls-2, .cls-3 {
        stroke-width: 0px;
      }

      .cls-2 {
        fill: #5aa8fe;
      }

      .cls-3 {
        fill: #f7fbfe;
      }
    </style>
  </defs>
  <path class="cls-1" d="m.26,48.26c-.08-1.65-.23-3.31-.23-4.96-.02-11.13-.02-22.25,0-33.38,0-1.32-.16-2.66.29-3.95.6-.24.71-.69.52-1.26C1.7,1.94,3.83.15,6.78.07c3.91-.11,7.83-.05,11.74-.02,2,.02,3.62,1.03,4.99,2.36,2.47,2.39,5.31,3.31,8.79,3.23,8.99-.19,17.98-.08,26.98-.05,6.51.02,9.49,2.95,9.5,9.36.03,10.16-.15,20.32.07,30.47.11,5.06-2.79,9.57-9.41,9.48-16.98-.22-33.97-.06-50.96-.1-4.17,0-6.69-1.8-7.7-5.25.24-.6.13-1.06-.53-1.29Zm34.45-27.11c-9.32,0-18.64.04-27.96-.03-1.85-.02-2.46.56-2.43,2.42.09,7.07,0,14.14.06,21.21.04,4.53,1.27,5.73,5.86,5.74,16.14.03,32.28.03,48.42,0,4.43,0,5.75-1.38,5.77-5.88.03-6.99-.06-13.98.06-20.96.03-2.02-.66-2.54-2.58-2.53-9.07.08-18.14.04-27.21.03Zm-.25-4.26c4.91,0,9.82,0,14.73,0,4.41,0,8.82,0,13.23-.01.79,0,1.68.21,2.01-.95.64-2.26-.87-5.09-3.17-5.72-2.35-.65-4.78-.59-7.18-.6-8.32-.06-16.64-.02-24.96-.03-2.15,0-4.43.1-6.02-1.61-3.85-4.15-8.77-4.24-13.83-3.88-3.57.25-4.81,1.63-4.94,5.25-.06,1.58-.1,3.16-.17,4.73-.09,1.99.52,2.92,2.83,2.88,9.15-.14,18.31-.06,27.46-.06Z"/>
  <path class="cls-2" d="m.84,4.72c.19.57.08,1.01-.52,1.26-.38-.65-.07-1.01.52-1.26Z"/>
  <path class="cls-2" d="m.26,48.26c.66.23.77.69.53,1.29-.61-.25-.82-.67-.53-1.29Z"/>
  <path class="cls-3" d="m34.71,21.15c9.07,0,18.14.04,27.21-.03,1.92-.02,2.61.51,2.58,2.53-.12,6.99-.02,13.98-.06,20.96-.02,4.5-1.34,5.87-5.77,5.88-16.14.03-32.28.03-48.42,0-4.59,0-5.83-1.21-5.86-5.74-.06-7.07.03-14.14-.06-21.21-.02-1.86.58-2.44,2.43-2.42,9.32.08,18.64.03,27.96.04Z"/>
</svg>