<?xml version="1.0" encoding="UTF-8"?>
<svg id="Calque_1" data-name="Calque 1" xmlns="http://www.w3.org/2000/svg" viewBox="0 0 125.58 125.79">
  <defs>
    <style>
      .cls-1 {
        fill: #90c5fe;
      }

      .cls-1, .cls-2, .cls-3, .cls-4 {
        stroke-width: 0px;
      }

      .cls-2 {
        fill: #bcdbfe;
      }

      .cls-3 {
        fill: #1484fe;
      }

      .cls-4 {
        fill: #007aff;
      }
    </style>
  </defs>
  <path class="cls-3" d="m90.53,99.7c-2.58,6.79-4.96,13.67-7.84,20.33-1.47,3.39-3.95,6.13-8.39,5.71-4.16-.39-5.93-3.18-6.98-6.69-4.23-14.12-8.51-28.22-12.53-42.4-.88-3.1-2.32-4.71-5.44-5.63-14.48-4.28-29.15-7.97-43.42-12.97C2.45,56.85.24,54.81.01,50.96c-.24-4.19,2.5-6.56,5.67-7.89,9.41-3.97,19-7.52,28.53-11.21,15.76-6.1,31.51-12.23,47.3-18.25,11.68-4.45,23.42-8.77,35.15-13.12,2.56-.95,5.06-.53,6.9,1.45,1.86,1.99,2.63,4.2,1.46,7.22-5.72,14.77-11.18,29.65-16.73,44.49-1.72,4.61-3.42,9.22-5.13,13.83-2.39,1.91-2.81,4.71-3.35,7.45-.13.61-.25,1.21-.38,1.82-1.93,2.31-3.36,4.83-3.19,7.99-.13.54-.27,1.08-.4,1.62-1.32.71-1.66,1.85-1.44,3.25-.11.6-.23,1.21-.34,1.81-2.57,2.17-3.21,5.16-3.55,8.29ZM12.13,50.1c1.66,1.6,3.7,2.18,5.95,2.17.62.96,1.41,1.54,2.62,1.25,10,2.67,19.82,5.99,29.73,8.97,4.36,1.31,6.48.75,9.37-2.18,13.72-13.95,27.64-27.7,41.46-41.56,1.07-1.08,2.63-1.93,2.64-3.82-1.62-.38-2.94,0-4.4.58-13.72,5.43-27.46,10.82-41.25,16.09-15.17,5.8-30.4,11.48-45.6,17.21-1.09.07-1.21.52-.52,1.3Zm99.94-29.49c-1.68.46-2.08.45-2.27.64-15.19,15.26-30.32,30.57-45.58,45.76-2.13,2.12-2.34,4.26-1.6,6.77,3.07,10.47,5.88,21.04,9.49,31.32,1.03,2.93.18,7.14,4.48,9.13,11.76-31.03,23.47-61.91,35.48-93.61Z"/>
  <path class="cls-1" d="m96.26,84.73c-.17-3.15,1.25-5.67,3.19-7.99.55,3.31-.67,5.9-3.19,7.99Z"/>
  <path class="cls-1" d="m90.53,99.7c.34-3.12.99-6.12,3.55-8.29-.49,3.06-.78,6.21-3.55,8.29Z"/>
  <path class="cls-4" d="m99.82,74.92c.54-2.74.96-5.54,3.35-7.45-.35,2.83-.57,5.72-3.35,7.45Z"/>
  <path class="cls-1" d="m94.42,89.6c-.23-1.4.12-2.54,1.44-3.25.78,1.64.71,2.9-1.44,3.25Z"/>
  <path class="cls-2" d="m18.08,52.27c1.35-.59,2.31-.35,2.62,1.25-1.21.29-2-.29-2.62-1.25Z"/>
  <path class="cls-2" d="m12.65,48.8c-.17.43-.34.87-.51,1.3-.7-.77-.58-1.23.51-1.3Z"/>
</svg>