<?xml version="1.0" encoding="UTF-8"?>
<svg id="Calque_1" data-name="Calque 1" xmlns="http://www.w3.org/2000/svg" viewBox="0 0 197.57 189.98">
  <defs>
    <style>
      .cls-1 {
        fill: #fde276;
      }

      .cls-1, .cls-2, .cls-3, .cls-4, .cls-5, .cls-6, .cls-7, .cls-8, .cls-9, .cls-10, .cls-11, .cls-12, .cls-13, .cls-14 {
        stroke-width: 0px;
      }

      .cls-2 {
        fill: #fee065;
      }

      .cls-3 {
        fill: #feefb2;
      }

      .cls-4 {
        fill: #fecd0b;
      }

      .cls-5 {
        fill: #fdf1be;
      }

      .cls-6 {
        fill: #fde892;
      }

      .cls-7 {
        fill: #fee47f;
      }

      .cls-8 {
        fill: #fed844;
      }

      .cls-9 {
        fill: #fedc58;
      }

      .cls-10 {
        fill: #fef2c4;
      }

      .cls-11 {
        fill: #feeca5;
      }

      .cls-12 {
        fill: #fed223;
      }

      .cls-13 {
        fill: #feefb6;
      }

      .cls-14 {
        fill: #fed017;
      }
    </style>
  </defs>
  <path class="cls-4" d="m52.58,125.05c.13-.93.27-1.87.4-2.8,0,0,.28.19.28.19l.34-.02c2.95.78,1.56-1.39,1.7-2.51.24-1.44.43-2.85-1.69-2.93.13-2.73-1.7-1.96-3.19-1.78-9.36-7.34-19.01-14.25-28.92-20.83-2.43-1.62-3.75-4.67-6.89-5.4-2.4-4.37-5.47-7.82-10.95-7.94-.2-.61-.22-1.46-.63-1.77-2.43-1.8-3.99-4.01-2.37-6.94,1.65-2.98,3.7-5.81,7.82-5.47,20.26.08,40.51.14,60.77.25,2.27.01,3.58-.59,2.94-3.15.07-.63.15-1.26.22-1.89,3.46-4.04,4.87-8.8,4.93-14.03,1.04-2.88.73-6.11,2.28-8.86,2.08-.66,3.31-2.41,3.64-4.22.8-4.43,2.91-8.57,2.88-13.16.05-.56.09-1.13.14-1.69,3.11-1.05,3.47-3.21,2.4-5.94.13-.91.26-1.82.39-2.73,3.33-.65,2.5-3.16,2.39-5.35.97-1.03,1.95-2.06,2.92-3.1,2.97.52,6.21-.86,8.95,1.27,5.13,2.66,4.9,7.96,6.06,12.52.56,2.18,1.11,4.33,2.21,6.3-.24,2.03-.66,4.13,1.97,5.04.13.6.27,1.21.4,1.81-.78,2.99.08,5.39,2.6,7.18.05.63.11,1.26.16,1.89-.31,2.59-.64,5.18,2.64,6.26.75,3.6,1.5,7.2,2.25,10.79.16,3.22.93,6.17,3.72,8.2,0,0,.02-.04.02-.04-.24,1.64-.09,2.97,2.12,2.66,13.67,0,27.34,0,41.01-.01,5.67,0,11.33-.02,17-.03,4.31-.12,7.71,1.27,9.62,5.47.26.57,1.35.76,2.06,1.13,0,.43,0,.87,0,1.3-3.3.92-2.58,3.8-3,6.13-1.55.77-3.1,1.55-4.65,2.32-2.83,1.1-5.14,2.76-6.24,5.73-1.62,1.02-2.69,2.9-4.83,3.12-2.07-.22-3.18.65-3.2,2.79l.12.26s-.14-.25-.14-.25c-2.61-.48-3.67,1.44-4.87,3.15-.49.05-1.32-.07-1.44.16-2.34,4.74-8.82,4.11-11.33,8.99-1.04,2.02-3.93,3.29-6.22,4.44-7.27,3.66-8.75,6.74-6.57,14.4.66,2.32,1.14,4.7,1.7,7.05,1.36,2.02-.24,5.63,3.45,6.4.08.88.16,1.77.24,2.65-1.16,2.75.15,4.53,2.34,5.96.13.92.25,1.85.38,2.77-.45,1.2-.82,2.39.63,3.22.66,4.7,5.63,7.78,4.9,13.01-.3,2.62-.22,5.06,2.71,6.28.04.57.08,1.13.12,1.7-.44,2.99-.64,5.98-.05,8.98-.04,1.66-1.16,2.19-2.55,2.44-3.12-.04-6.24-.08-9.35-.13-.59-.12-1.19-.24-1.78-.36.14-2.27-1.42-2.16-2.94-2.1-7.44-5.55-14.88-11.1-22.32-16.65-.07-1.1.41-2.53-1.15-2.92-3.4-.84-5.41-3.52-7.89-5.62-1.56-1.32-3.03-3.17-5.52-2.79-.93-2.53-3.94-1.09-5.32-2.78.49-2.54-.75-3.25-3.03-2.86-.57.01-1.13.02-1.7.03-2.23-.47-3.35.37-3.2,2.71-2.13.26-2.5,3.29-4.9,3.13-1.82-.21-2.02,1.23-2.48,2.42-.27.03-.52.12-.74.28-4.21,1.94-9.12,2.94-10.9,8.14-7.34,5.3-14.68,10.59-22.02,15.89-1.88.38-3.71.81-3.86,3.24-.62.11-1.25.23-1.87.34-3.43.7-6.83-.01-10.24-.2-.44-.69-.87-1.38-1.31-2.08-.03-3.1-.05-6.21-.08-9.31.07-.64.13-1.28.2-1.91,3.51-.88,2.08-3.72,2.32-5.89,0,0,.18.1.18.1,3.65-.41,2.7-3.05,2.55-5.3,1.02-3.96,2.04-7.92,3.06-11.88.05-.65.1-1.3.15-1.94,3.52-.91,2.84-3.61,2.62-6.12.11-.96.22-1.93.33-2.89,4.14-3.76,3.19-9.38,5.11-13.95Zm63.9-49.96h0c-.02-2.16.79-4.71-2.52-5.31-.1-.91-.2-1.82-.3-2.73,1.06-2.72.72-4.88-2.37-5.94l-.17-1.77c-.14-2.39,2.12-5.72-2.48-6.36.5-4.96-3.95-8.75-3.26-13.76,0-2.15,1.21-4.85-2.41-5.38-.1-.92-.21-1.83-.31-2.75.94-2.61.93-4.87-2.2-5.98-.09-.58-.17-1.17-.26-1.75.3-1.66.56-3.7-1.68-3.75-2.11-.05-1.86,1.75-1.25,3.25-.07.66-.13,1.32-.2,1.98-2.8.6-3.42,1.98-1.52,4.26-1.17,1.42-1.19,3.13-1.23,4.83-2.34,1.08-3,2.94-2.51,5.35-.08.94-.16,1.88-.24,2.82-2.23,2.31-3.71,4.85-2.65,8.22-.12.93-.24,1.85-.36,2.78-3.51.83-1.88,3.69-2.29,5.75-.09.65-.17,1.3-.26,1.95-2.96,1.25-2.72,3.77-2.49,6.29-.33,7.65-2.8,11.93-11.58,11.13-7.41-.67-14.92-.26-22.39-.32-.42-3.04-2.72-2.8-4.89-2.81-6.93,0-13.85-.01-20.78,0-.99,0-2.07-.16-2.94.19-2.09.83-1.68,3.08-1.94,4.68-.17,1.11,1.01.73,1.6,0,7.52,2.79,12.69,9.1,19.68,12.96,8.57,4.73,15.77,11.93,24.35,17,2.26,1.34,2.75,4.03,2.51,6.63-.17,1.81-.52,3.6-.79,5.41-3.27.09-2.98,2.19-2.51,4.41l-.18,1.68c-1.22,1.82-4.11,2.99-2.31,5.97-1.01,4.24-2.02,8.47-3.04,12.71-4.35,1.72-2.43,6.57-4.67,9.35-.41,1.97-.81,3.94-1.22,5.9-1.89.13-1.96,1.52-2.01,2.92-.07,1.7-.14,3.41-.21,5.11-.8.03-1.79-.08-2.08.82-.24.75.5,1.03,1.17,1.1,1.51.17,2.99.26,3.33-1.78,1.17-.68,1.9-1.66,2.01-3.04,1.86-1.21,3.22-3.37,5.86-3.13,2.06.18,2.97-.92,3.14-2.84h0c3.06-1.48,6.95-1.89,7.91-6.1,6.54-6.26,14.86-10.37,20.92-17.21,1.6-.1,3.9,1.96,4.44-1.44,1.08-.02,2.17-.03,3.25-.05.76,2.65,2.93,2.86,5.15,2.96,5.01,7.03,13.22,10.17,19.54,15.71,4.97,4.37,10.96,8.14,16.59,12.04.18,3.04,2.52,3.55,4.54,2.93,2.68-.82,1.41-3.15.86-4.94-.54-1.77-1.52-3.27-3.21-4.18-.66-6.56-3.94-12.41-5.16-18.82.03-1.97.86-4.29-2.12-4.98-.11-.92-.22-1.84-.33-2.76-.55-1.87-.05-4.22-2.41-5.27-.16-.93-.31-1.86-.47-2.79.39-2.14.65-4.21-2.48-4.36-.11-2.64-.22-5.28-.33-7.92-.09-2.17.69-3.91,2.77-4.73,6.09-2.39,10.4-7.39,15.9-10.71,7.71-4.66,14.86-10.29,22.01-15.81,1.45-1.12,2.75-1.47,4.32-1.7,1.6.14,3.34.16,2.82-2.13-.37-1.62-.5-3.79-3.14-3.75-3.82.07-7.64.04-11.46.05-3.73-.25-7.31,1.56-11.08.87-3.62-.93-7.49-3.19-10.01,1.84-7.64.03-15.27.07-22.91.1-.05-2.01-.98-3.08-3.08-2.9Z"/>
  <path class="cls-3" d="m72.19,63.94c.64,2.56-.67,3.16-2.94,3.15-20.26-.11-40.51-.17-60.77-.25.06-3.47,2.68-2.7,4.68-2.71,17.53-.02,35.06.01,52.6.01,2.15,0,4.29-.14,6.44-.21Z"/>
  <path class="cls-13" d="m168.49,66.84c-13.67,0-27.34,0-41.01.01.02-.87.04-1.75.06-2.62,13.63,0,27.27-.02,40.9-.03.02.88.04,1.76.05,2.63Z"/>
  <path class="cls-10" d="m168.49,66.84c-.02-.88-.04-1.76-.05-2.63,5.7,0,11.39,0,17.09-.01.52.88.72,1.76-.04,2.62-5.67,0-11.33.02-17,.03Z"/>
  <path class="cls-1" d="m107.72,155.88c2.49-.38,3.96,1.48,5.52,2.79,2.49,2.1,4.49,4.77,7.89,5.62,1.56.39,1.08,1.81,1.15,2.92-5.61-2.81-11.52-5.23-14.57-11.33Z"/>
  <path class="cls-1" d="m86.14,21.77c.03,4.6-2.07,8.74-2.88,13.16-.33,1.8-1.56,3.56-3.64,4.22,1.62-6,1.87-12.52,6.52-17.38Z"/>
  <path class="cls-13" d="m185.48,66.82c.75-.86.55-1.74.04-2.62,7.28-.04,11.75,3.5,11.65,9.22-.71-.37-1.8-.56-2.06-1.13-1.91-4.2-5.31-5.59-9.62-5.47Z"/>
  <path class="cls-5" d="m52.58,125.05c-1.91,4.57-.97,10.19-5.11,13.95-1.23-1-1.22-2.52-.69-3.57,1.47-2.89,2.97-5.66,3.05-9.05.03-1.45,1.65-1.22,2.74-1.33Z"/>
  <path class="cls-3" d="m77.34,48.02c-.06,5.24-1.47,9.99-4.93,14.03-.2-.25-.62-.54-.58-.74,1-4.78,1.94-9.58,5.51-13.3Z"/>
  <path class="cls-9" d="m3.67,81.02c5.48.12,8.55,3.57,10.95,7.94-4.19-1.91-8.46-3.69-10.95-7.94Z"/>
  <path class="cls-13" d="m37.46,186.23c3.41.19,6.81.9,10.24.2.1,2.68-1.17,3.76-3.84,3.53-2.77-.24-6.19.84-6.4-3.73Z"/>
  <path class="cls-11" d="m149.33,186.31c3.12.04,6.23.08,9.35.13.03,2.41-.95,3.61-3.58,3.48-2.68-.14-5.53.31-5.78-3.6Z"/>
  <path class="cls-11" d="m75.45,166.95c1.78-5.19,6.69-6.2,10.9-8.14.03.95.33,2.19-.64,2.66-3.5,1.68-6.18,4.92-10.27,5.47Z"/>
  <path class="cls-11" d="m161.23,183.99c-.58-3-.39-5.99.05-8.98,3.68-.12,2.97,2.58,3.07,4.77.1,2.26.08,4.4-3.12,4.21Z"/>
  <path class="cls-5" d="m44.38,149.96c-1.02,3.96-2.04,7.92-3.05,11.88-.83.13-1.66.27-2.49.4.93-3.57,1.88-7.13,2.8-10.7.38-1.5,1.62-1.44,2.75-1.58Z"/>
  <path class="cls-7" d="m103.33,4.23c-2.74-2.13-5.98-.75-8.95-1.27.41-4.48,3.85-2.47,6.11-2.73,3.12-.37,2.76,2.04,2.84,4Z"/>
  <path class="cls-13" d="m36.07,174.84c.03,3.1.05,6.21.08,9.31-3.66-2.22-3.7-6.87-.08-9.31Z"/>
  <path class="cls-13" d="m125.34,64.23c-2.8-2.03-3.57-4.97-3.72-8.2,6.6.3,2.97,5.24,3.72,8.2Z"/>
  <path class="cls-1" d="m88.68,14.14c1.07,2.74.7,4.9-2.41,5.94-.59-2.55-2.08-5.45,2.41-5.94Z"/>
  <path class="cls-11" d="m116.56,37.09c-2.52-1.8-3.37-4.2-2.6-7.18,3.51,1.44,3.57,4.13,2.6,7.18Z"/>
  <path class="cls-11" d="m183.28,88.91c1.1-2.98,3.41-4.64,6.24-5.73-.09,4.07-2.61,5.5-6.24,5.73Z"/>
  <path class="cls-5" d="m47.14,141.9c.22,2.51.9,5.21-2.62,6.12-1.07-2.87-.97-5.24,2.62-6.12Z"/>
  <path class="cls-6" d="m149.95,139.41c-3.69-.76-2.08-4.38-3.45-6.4,4.41.38,4.23,3.22,3.45,6.4Z"/>
  <path class="cls-6" d="m152.54,148.02c-2.19-1.43-3.5-3.21-2.34-5.96,3.34.98,3.74,3.12,2.34,5.96Z"/>
  <path class="cls-13" d="m194.17,80.86c.42-2.33-.31-5.22,3-6.13-.21,2.43,2.27,6.18-3,6.13Z"/>
  <path class="cls-13" d="m38.59,167.04c-.24,2.17,1.19,5-2.32,5.89-.72-2.55-2.38-5.47,2.32-5.89Z"/>
  <path class="cls-11" d="m119.36,45.24c-3.28-1.08-2.95-3.67-2.64-6.26,4.44.59,2.39,3.91,2.64,6.26Z"/>
  <path class="cls-11" d="m161.16,173.31c-2.93-1.22-3.02-3.67-2.71-6.28,4.87.38,2.57,3.86,2.71,6.28Z"/>
  <path class="cls-1" d="m91.46,6.06c.11,2.19.95,4.7-2.39,5.35-.52-2.37-1.21-4.82,2.39-5.35Z"/>
  <path class="cls-2" d="m38.83,162.24c.83-.13,1.66-.27,2.49-.4.14,2.24,1.1,4.88-2.56,5.3.02-1.63.04-3.26.06-4.9Z"/>
  <path class="cls-11" d="m113.57,28.09c-2.63-.91-2.21-3.01-1.97-5.04,3.72.48,3.49,2.51,1.97,5.04Z"/>
  <path class="cls-5" d="m53.6,122.43l-.34.02s-.28-.19-.28-.19c-2.42-1.42.36-3.42-.55-5.01.39-.09.79-.18,1.18-.27,2.12.08,1.93,1.49,1.69,2.93-1.43.25-1.85,1.19-1.7,2.51Z"/>
  <path class="cls-13" d="m49.57,186.08c.15-2.44,1.98-2.87,3.86-3.24-.09,2.5-.16,5.04-3.86,3.24Z"/>
  <path class="cls-13" d="m170.36,97.97c1.2-1.71,2.26-3.63,4.87-3.15.5,4.34-2.68,2.98-4.87,3.15Z"/>
  <path class="cls-13" d="m175.24,94.81c.02-2.13,1.13-3.01,3.2-2.79.05,2.21-.72,3.48-3.2,2.79Z"/>
  <path class="cls-6" d="m94.48,152.98c-.15-2.34.96-3.18,3.2-2.71-.09,2.05-1.01,3.13-3.2,2.71Z"/>
  <path class="cls-6" d="m99.37,150.24c2.28-.39,3.52.32,3.03,2.86-2.08.19-2.89-.98-3.03-2.86Z"/>
  <path class="cls-1" d="m53.61,116.98c-.39.09-.79.18-1.18.27-.67-.68-1.34-1.37-2.01-2.05,1.49-.17,3.32-.94,3.19,1.78Z"/>
  <path class="cls-10" d="m127.53,64.24c-.02.87-.04,1.75-.06,2.62-2.21.31-2.36-1.02-2.12-2.66.73.02,1.45.03,2.18.04Z"/>
  <path class="cls-11" d="m87.1,158.53c.46-1.19.66-2.63,2.48-2.42-.17,1.48-.02,3.29-2.48,2.42Z"/>
  <path class="cls-11" d="m144.61,183.85c1.52-.06,3.08-.17,2.94,2.1-1.54.09-2.94-.03-2.94-2.1Z"/>
  <path class="cls-6" d="m153.55,154.02c-1.45-.83-1.08-2.02-.63-3.22,1.93.74,2.16,1.81.63,3.22Z"/>
  <path class="cls-12" d="m49.57,77.89c-8.13.04-16.26.07-24.39.12-1.78,0-3.77-.43-4.55,1.94-.59.73-1.78,1.11-1.6,0,.25-1.6-.16-3.85,1.94-4.68.87-.34,1.95-.19,2.94-.19,6.93,0,13.85,0,20.78,0,2.17,0,4.47-.24,4.89,2.81Z"/>
  <path class="cls-8" d="m175.34,80.99c.63-2.25-.45-2.94-2.54-2.93-3.12.02-6.24-.1-9.37-.16.04-.91.08-1.82.12-2.74,3.82-.01,7.64.02,11.46-.05,2.64-.05,2.77,2.13,3.14,3.75.52,2.29-1.22,2.27-2.82,2.13Z"/>
  <path class="cls-11" d="m141.44,167.04c5.69-.31,1.15-4.24,2.19-6.19,1.69.91,2.67,2.41,3.21,4.18.55,1.79,1.82,4.12-.86,4.94-2.02.62-4.37.11-4.54-2.93Z"/>
  <path class="cls-14" d="m152.47,77.89c-3.33,0-6.66,0-9.99,0,2.52-5.03,6.39-2.77,10.01-1.84,0,.61-.01,1.23-.02,1.84Z"/>
  <path class="cls-10" d="m58.34,146.71c.67,4.23.04,7.81-4.67,9.35,2.24-2.77.32-7.63,4.67-9.35Z"/>
  <path class="cls-12" d="m152.47,77.89c0-.61.01-1.23.02-1.84,3.77.69,7.34-1.12,11.08-.87-.04.91-.08,1.83-.12,2.74-3.66,0-7.32-.01-10.98-.02Z"/>
  <path class="cls-11" d="m63.64,161.13c.91-4.26,4.49-5.08,7.91-6.1-.96,4.21-4.85,4.62-7.91,6.1Z"/>
  <path class="cls-6" d="m91.58,42.1c.61,3.22,1.22,6.44-2.65,8.22-1.06-3.37.42-5.91,2.65-8.22Z"/>
  <path class="cls-7" d="m113.66,67.06c-2.87-1.15-3.32-3.27-2.37-5.94,3.09,1.07,3.42,3.23,2.37,5.94Z"/>
  <path class="cls-10" d="m52.46,165c.73.7,1.46,1.39,2.19,2.09-.11,1.38-.83,2.36-2.01,3.04-.81-.05-1.61-.09-2.42-.14.07-1.7.14-3.41.21-5.11.67.04,1.35.08,2.02.12Z"/>
  <path class="cls-7" d="m111.12,59.34c-2.85-1.33-2.77-3.81-2.48-6.36,4.6.65,2.34,3.97,2.48,6.36Z"/>
  <path class="cls-1" d="m102.67,31.09c-1.81-1.6-3.84-3.11-2.2-5.98,3.13,1.11,3.14,3.37,2.2,5.98Z"/>
  <path class="cls-7" d="m86.02,60.8c.01,2.43,2.17,5.71-2.49,6.29-.23-2.51-.47-5.03,2.49-6.29Z"/>
  <path class="cls-2" d="m63.68,128.03c.77,2.59.82,4.89-2.31,5.97-1.8-2.98,1.09-4.15,2.31-5.97Z"/>
  <path class="cls-7" d="m116.48,75.09c-3.99-.27-2.84-2.98-2.52-5.3,3.31.6,2.5,3.15,2.52,5.3Z"/>
  <path class="cls-6" d="m88.57,53.09c1.22,2.71.88,4.79-2.29,5.75.4-2.06-1.22-4.93,2.29-5.75Z"/>
  <path class="cls-1" d="m105.38,39.22c-3.61-.54-2.84-3.03-2.41-5.38,3.62.54,2.4,3.23,2.41,5.38Z"/>
  <path class="cls-3" d="m100.16,136.33c2.56-.48,4.7-.24,5.15,2.96-2.23-.1-4.39-.3-5.15-2.96Z"/>
  <path class="cls-6" d="m94.33,33.93c.03,2.19,1.37,5-2.51,5.35-.49-2.41.17-4.27,2.51-5.35Z"/>
  <path class="cls-1" d="m100.21,23.36c-.98-.17-1.96-.33-2.93-.5-.6-1.51-.86-3.3,1.25-3.25,2.24.05,1.98,2.09,1.68,3.75Z"/>
  <path class="cls-6" d="m136.03,134.3c-3.01-.75-3.48-2.66-2.41-5.27,2.35,1.05,1.86,3.4,2.41,5.27Z"/>
  <path class="cls-6" d="m138.48,142.03c-2.76-.78-2.73-2.76-2.12-4.98,2.98.69,2.15,3.01,2.12,4.98Z"/>
  <path class="cls-2" d="m66.37,121.95c.52,2.24,0,3.89-2.51,4.41-.47-2.21-.76-4.32,2.51-4.41Z"/>
  <path class="cls-6" d="m133.15,126.23c-2.77-.35-2.95-2.17-2.48-4.36,3.13.15,2.86,2.22,2.48,4.36Z"/>
  <path class="cls-2" d="m50.23,170c.81.05,1.61.09,2.42.14-.33,2.04-1.81,1.95-3.32,1.78-.67-.08-1.42-.35-1.17-1.1.29-.9,1.28-.79,2.08-.82Z"/>
  <path class="cls-7" d="m119.57,77.99c-2.35.44-3.37-.53-3.08-2.9,2.11-.18,3.03.89,3.08,2.9Z"/>
  <path class="cls-1" d="m97.07,24.84c-.32,1.49-.07,3.18-1.52,4.26-1.9-2.28-1.29-3.66,1.52-4.26Z"/>
  <path class="cls-11" d="m60.51,163.96c-.16-2.28.83-3.29,3.14-2.84-.16,1.92-1.07,3.02-3.14,2.84Z"/>
  <path class="cls-3" d="m92.47,137.82c1.02-1.9,2.6-2.08,4.44-1.44-.54,3.4-2.84,1.34-4.44,1.44Z"/>
  <path class="cls-2" d="m52.46,165c-.67-.04-1.35-.08-2.02-.12.05-1.4.12-2.79,2.01-2.92,0,1.01,0,2.03,0,3.04Z"/>
  <path class="cls-1" d="m53.6,122.43c-.15-1.32.27-2.26,1.7-2.51-.14,1.13,1.25,3.29-1.7,2.51Z"/>
</svg>