<?xml version="1.0" encoding="UTF-8"?>
<svg id="Calque_1" data-name="Calque 1" xmlns="http://www.w3.org/2000/svg" viewBox="0 0 146.9 110.98">
  <defs>
    <style>
      .cls-1 {
        fill: #5ba8fe;
      }

      .cls-1, .cls-2, .cls-3, .cls-4 {
        stroke-width: 0px;
      }

      .cls-2 {
        fill: #0f81fe;
      }

      .cls-3 {
        fill: #56a6fe;
      }

      .cls-4 {
        fill: #1685fe;
      }
    </style>
  </defs>
  <path class="cls-2" d="m19.18,69.94c-.08-1.25-.17-2.5-.25-3.75-.22-2.83,1.82-6.11-1.64-8.31-.12-1.89-.24-3.78-.36-5.68-.1-2.54,1.58-5.45-1.57-7.33-.16-1.66-.14-3.36-.52-4.96-.99-4.05-.7-8.59-7.52-8.41-3.98.11-6.72-4.1-7.05-8.4C-.1,18.49-.06,13.79.21,9.15.52,3.89,4.71.05,10.08.04,52.21-.01,94.33-.01,136.45.03c6.07,0,10.17,4.17,10.36,10.26.12,3.82.13,7.66,0,11.48-.2,5.86-3.98,9.86-9.92,10.12-2.52.11-3.18,1.03-3.89,3.28-1.73,5.44-1.69,11.13-2.72,16.66-2.62,14-4.25,28.18-6.31,42.29-1.31,9.01-5.96,17.02-18.84,16.85-21.31-.28-42.62-.1-63.93-.05-3.54,0-6.93-.26-9.99-2.25-.15-1.31-.85-1.93-2.2-1.71-1.29-1.07-2.62-2.12-3.02-3.89.28-1.21-.22-1.96-1.36-2.34-.22-.88-.44-1.77-.66-2.65.25-.9.26-1.72-.76-2.18-.2-1.52-.4-3.04-.6-4.56.49-.89.6-1.73-.34-2.42-.1-.61-.21-1.21-.31-1.82.38-1.19.54-2.33-.67-3.18-.15-1.57-.29-3.13-.44-4.7-.02-3.2,1.64-6.7-1.68-9.3Zm53.97-37.94c-15.3,0-30.61.11-45.91-.08-3.77-.05-5.27.54-4.56,4.83,3.22,19.28,6.11,38.62,9.18,57.93.84,5.26,3.62,8.18,8.91,8.23,21.62.18,43.25.2,64.88,0,5.67-.05,8.6-3.23,9.54-8.86.88-5.23,1.84-10.45,2.64-15.69,2.11-13.79,4.09-27.59,6.25-41.37.59-3.78-.34-5.17-4.52-5.1-15.47.25-30.94.1-46.41.1Zm.44-7.91c19.31,0,38.63.02,57.94-.01,5.66-.01,6.61-1.23,6.63-7.92.02-7.08-.9-8.3-6.77-8.3-38.63-.03-77.26-.03-115.88,0-6.01,0-6.84,1.09-6.83,8.2,0,7.04.81,8.02,6.97,8.03,19.31.03,38.63.01,57.94,0Z"/>
  <path class="cls-1" d="m19.18,69.94c3.32,2.6,1.66,6.1,1.68,9.3-1.98-2.84-2.31-5.99-1.68-9.3Z"/>
  <path class="cls-1" d="m17.29,57.89c3.46,2.19,1.42,5.47,1.64,8.31-2.35-2.41-1.69-5.42-1.64-8.31Z"/>
  <path class="cls-1" d="m15.36,44.88c3.14,1.88,1.47,4.8,1.57,7.33-2.45-2.03-1.66-4.76-1.57-7.33Z"/>
  <path class="cls-1" d="m21.3,83.94c1.22.85,1.05,1.99.67,3.18-1.62-.76-1.8-1.83-.67-3.18Z"/>
  <path class="cls-1" d="m22.28,88.94c.94.69.83,1.53.34,2.42-.68-.73-1.68-1.41-.34-2.42Z"/>
  <path class="cls-1" d="m23.22,95.91c1.02.46,1.01,1.28.76,2.18-1.25-.38-1.94-.95-.76-2.18Z"/>
  <path class="cls-3" d="m24.64,100.75c1.14.38,1.64,1.13,1.36,2.34-1.19-.35-1.86-1.01-1.36-2.34Z"/>
  <path class="cls-3" d="m29.01,106.97c1.35-.22,2.04.4,2.2,1.71-1.34.21-1.75-.78-2.2-1.71Z"/>
  <path class="cls-4" d="m73.39,73.3c-1.18.87-2.33,1.53-3.24,2.43-3.6,3.58-7.12,7.24-10.68,10.85-2.05,2.08-4.39,3.35-6.95,1.06-2.82-2.52-1.05-4.77.91-6.75,3.48-3.51,6.94-7.04,10.58-10.37,2.7-2.48,3.33-4.38.1-7.15-4-3.43-7.51-7.43-11.2-11.22-1.79-1.84-2.76-3.79-.45-5.97,2.15-2.03,4.1-1.46,6,.39,4.01,3.92,8.11,7.75,12,11.77,2.09,2.15,3.65,2.21,5.74-.02,3.48-3.72,7.14-7.28,10.86-10.77,1.98-1.86,4.08-4.18,7.11-1.47,3.29,2.95.69,5-1.21,6.95-3.68,3.78-7.43,7.49-11.3,11.06-2.16,1.99-2.03,3.58,0,5.49,4.07,3.84,8.12,7.71,12.03,11.71,1.77,1.81,3.33,4.01.61,6.35-2.41,2.07-4.59,1.21-6.57-.76-3.7-3.69-7.37-7.42-11.1-11.08-.92-.9-2.05-1.59-3.24-2.51Z"/>
</svg>