<svg width="14" height="11" viewBox="0 0 14 11" fill="none" xmlns="http://www.w3.org/2000/svg">
<g clip-path="url(#clip0_39_23)">
<path d="M7.28845 0C9.62922 0.0649201 11.9157 1.06173 13.8686 2.98667C14.0418 3.15738 14.0424 3.29272 13.8782 3.48336C13.6348 3.76571 13.3905 4.04703 13.1449 4.32732C12.9739 4.52276 12.8628 4.52723 12.6777 4.3438C11.4866 3.16219 10.1085 2.3859 8.52671 2.08981C5.90415 1.59861 3.55932 2.28697 1.50939 4.16347C1.43731 4.22942 1.36959 4.30052 1.29844 4.36716C1.13929 4.51658 1.02164 4.51418 0.877156 4.35067C0.620017 4.05905 0.364751 3.76536 0.110421 3.47065C-0.0434248 3.29237 -0.0365594 3.15841 0.131329 2.9877C0.924901 2.18152 1.81615 1.53575 2.79664 1.04078C4.13258 0.366163 5.53436 0.00755683 7.28845 0Z" fill="white"/>
<path d="M6.87775 3.95508C8.64901 3.98084 10.1191 4.57302 11.3792 5.77799C11.5693 5.9597 11.5746 6.10019 11.3964 6.29529C11.1311 6.58623 10.8653 6.87614 10.5975 7.16433C10.4409 7.33264 10.3304 7.33436 10.1625 7.1791C8.2945 5.45133 5.70783 5.44687 3.83983 7.16776C3.65478 7.33813 3.54962 7.33607 3.38079 7.15368C3.11367 6.8648 2.84685 6.57592 2.58191 6.28464C2.41746 6.10397 2.42027 5.95626 2.59284 5.78967C3.62233 4.79629 4.81596 4.20239 6.17561 4.02C6.44367 3.98393 6.71392 3.96985 6.87744 3.95508H6.87775Z" fill="white"/>
<path d="M6.99611 7.83887C7.69887 7.85982 8.30146 8.12225 8.79857 8.66187C8.9571 8.83362 8.96022 8.97754 8.80481 9.14723C8.27369 9.72704 7.74131 10.3055 7.20737 10.8819C7.06133 11.0395 6.93214 11.0388 6.78671 10.8819C6.25309 10.3048 5.72071 9.7267 5.18959 9.14689C5.03355 8.97651 5.03605 8.83637 5.19551 8.66256C5.69575 8.11607 6.30489 7.85673 6.9958 7.83887H6.99611Z" fill="white"/>
</g>
<defs>
<clipPath id="clip0_39_23">
<rect width="14" height="11" fill="white"/>
</clipPath>
</defs>
</svg>
