<?xml version="1.0" encoding="UTF-8"?>
<svg id="Calque_1" data-name="Calque 1" xmlns="http://www.w3.org/2000/svg" viewBox="0 0 43.54 50.37">
  <defs>
    <style>
      .cls-1 {
        fill: #1986fe;
        stroke-width: 0px;
      }
    </style>
  </defs>
  <path class="cls-1" d="m21.73,50.37c-3.25,0-6.49.02-9.74,0-4.05-.03-5.75-1.62-5.97-5.69-.53-9.88-1.05-19.75-1.47-29.64-.09-2.05-.2-3.66-2.91-3.37-.82.08-1.73-.35-1.64-1.45.09-1.09.92-1.56,1.91-1.58,2.66-.05,5.33-.09,7.99,0,1.52.05,1.98-.49,2.02-2C12.06,1.25,13.4.03,18.86.01c2.33,0,4.66-.03,6.99.01,3.89.06,5.89,1.94,5.79,5.85-.05,2.21.59,2.96,2.8,2.78,2.23-.19,4.49-.05,6.74-.03,1.16,0,2.32.34,2.36,1.65.04,1.31-1.17,1.54-2.19,1.45-2.46-.21-2.38,1.47-2.44,3.08-.38,10.05-.64,20.11-1.47,30.13-.32,3.91-2.03,5.41-5.98,5.43-3.24.02-6.49,0-9.74,0Zm-.21-38.8c-3.99,0-7.99.04-11.98-.02-1.36-.02-2.04.41-1.97,1.84.51,10.29,1.02,20.58,1.52,30.88.1,2.15,1.24,3.12,3.36,3.11,6.24-.02,12.48,0,18.72,0,2.13,0,3.16-1.04,3.26-3.2.45-10.04.91-20.09,1.47-30.13.11-1.92-.64-2.51-2.39-2.49-3.99.04-7.99.01-11.98,0Zm.26-8.59s0,.01,0,.02c-1.49,0-3-.15-4.46.03-2.32.29-2.33,2.09-2.39,3.92-.06,1.95,1.19,1.83,2.47,1.83,2.65,0,5.29,0,7.94,0,3.13,0,3.18-.12,3.04-3.2-.08-1.78-.99-2.54-2.63-2.59-1.32-.04-2.65,0-3.97,0Z"/>
  <path class="cls-1" d="m23.03,29.77c0,3.73,0,7.46,0,11.18,0,.91.08,2.07-1.12,2.16-1.31.09-1.5-1.04-1.5-2.1,0-7.62,0-15.24,0-22.86,0-.98.1-1.91,1.4-1.85,1.15.05,1.22.93,1.22,1.79,0,3.89,0,7.79,0,11.68Z"/>
  <path class="cls-1" d="m15.9,29.72c.14,3.73.29,7.45.42,11.18.03.91.16,2.07-1.03,2.2-1.31.14-1.53-.99-1.57-2.04-.3-7.62-.58-15.23-.88-22.85-.04-.98.03-1.91,1.33-1.9,1.15,0,1.25.88,1.29,1.75.15,3.89.3,7.78.45,11.67Z"/>
  <path class="cls-1" d="m30.21,29.88c-.16,3.72-.32,7.45-.49,11.17-.04.91-.01,2.07-1.21,2.1-1.32.03-1.45-1.11-1.4-2.16.33-7.61.66-15.23.99-22.84.04-.98.18-1.9,1.48-1.79,1.15.1,1.18.98,1.14,1.85-.16,3.89-.34,7.78-.51,11.67Z"/>
</svg>