<?xml version="1.0" encoding="UTF-8"?>
<svg id="Calque_1" data-name="Calque 1" xmlns="http://www.w3.org/2000/svg" viewBox="0 0 43.19 50.04">
  <defs>
    <style>
      .cls-1 {
        fill: #e5b41e;
      }

      .cls-1, .cls-2 {
        stroke-width: 0px;
      }

      .cls-2 {
        fill: #e6b92a;
      }
    </style>
  </defs>
  <g>
    <path class="cls-1" d="m21.55,50.03c-3.22,0-6.44.02-9.66,0-4.01-.03-5.7-1.61-5.91-5.67-.52-9.81-1.04-19.62-1.46-29.44-.09-2.05-.23-3.62-2.9-3.34-.81.08-1.71-.36-1.61-1.45.1-1.08.92-1.54,1.91-1.55,2.64-.04,5.28-.09,7.92,0,1.52.05,1.96-.51,1.99-2C11.95,1.3,13.3.04,18.48.01c2.39-.01,4.79-.03,7.18.01,3.85.06,5.83,1.93,5.73,5.82-.06,2.22.61,2.92,2.79,2.74,2.21-.18,4.45-.05,6.68-.03,1.15.01,2.3.34,2.32,1.65.03,1.3-1.18,1.52-2.18,1.43-2.45-.21-2.33,1.48-2.41,3.07-.41,9.16-.8,18.31-1.23,27.47-.07,1.4-.09,2.84-.47,4.17-.68,2.41-2.41,3.66-4.95,3.67-3.47.01-6.93,0-10.4,0Zm-.07-38.53h0c-2.97-.01-5.94-.01-8.91-.01-4.99,0-5.04,0-4.83,4.9.39,8.99.86,17.98,1.25,26.97.09,2.18.74,3.71,3.25,3.71,6.27,0,12.54,0,18.81,0,1.99,0,3-1.02,3.1-3.05.46-10.06.92-20.12,1.47-30.18.1-1.79-.61-2.35-2.25-2.34-3.96.03-7.92.01-11.88.01Zm.13-8.55s0,.01,0,.02c-1.48,0-2.97-.15-4.43.03-2.3.29-2.31,2.09-2.36,3.9-.05,1.94,1.2,1.81,2.46,1.8,2.63,0,5.25,0,7.88,0,3.09,0,3.15-.12,3.01-3.18-.08-1.77-.99-2.51-2.62-2.56-1.31-.04-2.62,0-3.94,0Z"/>
    <path class="cls-2" d="m22.85,29.38c0,3.79,0,7.57,0,11.36,0,.91.04,2.06-1.16,2.09-1.29.03-1.43-1.11-1.43-2.15,0-7.57,0-15.14,0-22.71,0-.87.07-1.73,1.2-1.78,1.29-.06,1.4.88,1.4,1.84,0,3.79,0,7.57,0,11.36Z"/>
  </g>
  <path class="cls-2" d="m15.57,29.36c.07,3.79.14,7.57.2,11.36.01.91.07,2.06-1.12,2.11-1.29.05-1.45-1.08-1.47-2.12-.14-7.57-.27-15.14-.41-22.71-.02-.87.04-1.73,1.17-1.8,1.29-.09,1.41.85,1.43,1.82.07,3.78.14,7.57.2,11.36Z"/>
  <path class="cls-2" d="m29.97,29.44c-.07,3.79-.13,7.57-.21,11.36-.02.91,0,2.06-1.2,2.07-1.29,0-1.41-1.13-1.39-2.17.14-7.57.27-15.14.41-22.71.02-.87.1-1.73,1.23-1.76,1.29-.04,1.38.9,1.36,1.87-.06,3.79-.13,7.57-.2,11.36Z"/>
</svg>