<?xml version="1.0" encoding="UTF-8"?>
<svg id="Calque_1" data-name="Calque 1" xmlns="http://www.w3.org/2000/svg" viewBox="0 0 225.73 225.4">
  <defs>
    <style>
      .cls-1 {
        fill: #a6abb9;
      }

      .cls-1, .cls-2, .cls-3, .cls-4, .cls-5, .cls-6, .cls-7, .cls-8, .cls-9, .cls-10, .cls-11, .cls-12, .cls-13 {
        stroke-width: 0px;
      }

      .cls-2 {
        fill: #a0a6b4;
      }

      .cls-3 {
        fill: #9a9fab;
      }

      .cls-4 {
        fill: #979ca8;
      }

      .cls-5 {
        fill: #9398a4;
      }

      .cls-6 {
        fill: #8c919c;
      }

      .cls-7 {
        fill: #959aa6;
      }

      .cls-8 {
        fill: #90949f;
      }

      .cls-9 {
        fill: #b1b5bd;
      }

      .cls-10 {
        fill: #9296a2;
      }

      .cls-11 {
        fill: #898d98;
      }

      .cls-12 {
        fill: #9ea4b1;
      }

      .cls-13 {
        fill: #9da3af;
      }
    </style>
  </defs>
  <path class="cls-11" d="m181.97,201.08c-11.73,9.7-25.05,16.16-39.71,20.22-12.41,3.44-24.98,4.7-37.73,3.83-18.46-1.26-35.62-6.83-51.33-16.64-3.55-2.22-6.78-4.93-10.16-7.41-1.58-2.85-3.33-5.51-6.94-6.04,0,0-.02-.01-.02-.01-.1-1.25-.7-1.98-2.02-1.95,0,0,0,0,0,0-.06-1.24-.63-1.99-1.93-2.04,0,0-.03-.02-.03-.02-.12-3.66-4.29-4.71-5.1-7.92.96-.43,1.93-1.1,1.9-2.13-.13-3.67,1.53-3.16,4.55-3.25,4.82-.14,9.32-.98,13.13,2.97.53.55,2.04.64,2.87.33,4.6-1.69,9.76-1.57,13.93-4.67,3.36-2.49,7.52-1.9,9.34,1.61,1.17,2.26,2.54,2.02,4.41,2,5.88-.07,11.71-3.26,17.69-.01,1.28.7,3.17.23,4.7-.85,6.11-4.33,10.31-4.38,15.98.14,1.99,1.59,3.44,1.74,5.78.85,3.59-1.36,6.85-3.49,11.49-1.4,2.63,1.19,6.78,2.71,10.08.84,3.98-2.26,8.08-1.21,11.98-.8,3.16.33,5.21.67,4.85-5.3,2.26,4.23,4.24,5.38,7.03,4.28,2.88-1.13,5.24-.84,7.51,1.76,1.71,1.96,4.71,2.42,6.98,1.27,3.88-1.97,8.44-1.54,12.18-4.1,2.13-1.45,4.23-.45,4.54,2.51.14,1.32.06,2.66.08,3.99-2.86,5.15-8.39,8.02-11.26,13.16-.16.2-.33.38-.52.54-2.1.72-3.67,1.98-4.23,4.24Z"/>
  <path class="cls-3" d="m7.95,73.09c.18-1.27.36-2.55.54-3.82.57-.36,1.15-.72,1.72-1.09,1.83.11,2.87-.84,4.1-2.2,1.79-1.99,4.26-4.05,7.14-2.99,4.76,1.75,9.44,1.55,14.15.45,6.56-1.54,13.14,1.14,19.89-.72,3.44-.94,7.82.25,11.74,2.05,2.53,1.17,6.2,1.43,8.94-1.98,3.02-3.76,5.58-3.07,8.02,1.38.73,1.33,1.86,2.56,2.97,1.01,2.57-3.61,5.26-2.89,8.64-1.36,1.97.89,4.3.97,6.74.54,6-1.07,12.11-1.5,18.17-2.22,3.02-.36,6.49-2.83,8.25,2.13.37,1.03,1.73.41,2.7.19,6.54-1.48,13.16.33,19.91-.75,4.87-.78,10.4-.24,15.63-.26,6.73-.03,13.42-.9,20.19-.79,5.22.09,9.88,3.15,15.07,1.82,3.63-.93,6.99-.95,9.53,2.49.26.35,1.27.15,1.93.21,1.04,2.97,1.69,6.16,4.64,8.03.1.66.2,1.33.3,1.99-2.23,3.3,2.43,5.77,1.09,8.96-2.74,1.43-5.55.43-8.22-.08-4.5-.86-8.76.74-13.13.76-5.2.02-10.42-.78-15.61-.56-6.6.29-13.12-.61-19.65-.65-5.33-.04-11.83-2.86-15.76,3.74-4.66-3.74-9.25-7.62-15.57-8.23-.22-1.73-1.43-1.98-2.87-1.98-7.76.01-15.52,0-23.28-.01-1.46,0-2.63.3-2.83,2.02-1.78.35-2.46,2.11-3.82,2.99-3.88-1.34-7.59-.79-11.18,1.02-1.01-.56-1.28-2.07-2.7-2.09-.13-.58-.26-1.16-.39-1.74.04-2.3-1.47-2.25-3.09-2.04-.87,0-1.74,0-2.61,0-2.92.31-5.73.7-4.22,4.86-.07,1.32-.14,2.63-.21,3.95-3.35,1.67-1.06,4.72-1.73,7.05-.75-.3-1.67-.41-2.22-.92-3.1-2.9-5.85-6.14-9.95-.89-1.19,1.53-4.07,1.93-4.84-1.41-.43-1.89-1.34-3.18-3.44-2.38-1.34.51-2.54.93-4.05,1.14-5.71.83-11.44-1.12-17.1.46-3.37.94-6.94,1.77-10.28.73-3.15-.98-5.94-.62-8.66.65-3.36,1.58-6.94,2.03-10.51,2.61.06-1.33.12-2.66.18-3.99,2.61-1.38,3.47-3.31,1.87-6,.1-1,.21-1.99.31-2.99,3.86-1.97,3.46-5.62,3.57-9.07Z"/>
  <path class="cls-6" d="m197.98,183.14c-.02-1.33.06-2.67-.08-3.99-.3-2.96-2.41-3.97-4.54-2.51-3.74,2.56-8.29,2.13-12.18,4.1-2.27,1.15-5.26.69-6.98-1.27-2.27-2.6-4.63-2.89-7.51-1.76-2.79,1.1-4.78-.05-7.03-4.28.36,5.97-1.69,5.63-4.85,5.3-3.9-.41-8-1.46-11.98.8-3.3,1.87-7.45.35-10.08-.84-4.64-2.09-7.9.04-11.49,1.4-2.34.89-3.78.74-5.78-.85-5.66-4.53-9.86-4.47-15.98-.14-1.53,1.08-3.42,1.55-4.7.85-5.98-3.25-11.81-.06-17.69.01-1.86.02-3.23.26-4.41-2-1.82-3.51-5.98-4.1-9.34-1.61-4.18,3.1-9.34,2.98-13.93,4.67-.83.31-2.34.22-2.87-.33-3.81-3.94-8.31-3.11-13.13-2.97-3.02.09-4.68-.42-4.55,3.25.04,1.02-.94,1.7-1.9,2.13-1.75-.38-1.77-3.32-4.13-2.81,0,0,0-.02,0-.02.28-2.43-1.69-3.77-2.75-5.51-2.66-4.39-5.39-8.72-7.08-13.6.56-6.35,3.13-8.14,8.6-5.76,4.95,2.16,9.65,4.83,15.34,1.86,1.4-.73,3.58.16,5.39.07,4.11-.2,8.56.76,12.16.24,6.98-1.02,13.65,1.02,20.67-.04,10.71-1.62,21.83,1.51,32.69-1.16.69-.17,1.55.31,2.33.51,7.56,2.01,14.86,1.27,21.76-2.35,1.55-.81,2.92-2.18,4.28-.39,2.47,3.26,5.92,2.31,8.68,1.64,4.61-1.12,8.47.04,12.29,2.17,1.04.58,2.1,1.54,3.18,1.04,4.93-2.28,10.43-.52,15.38-2.33,1.3-.47,2.55-.69,3.87-.16,5.88,2.37,12.25.06,18.14,1.85,4.68,1.42,9.79-1.13,14.23,1.78,0,1.67-.55,3.04-1.41,4.57-1.14,2.02-3.35,3.9-2.42,6.74-.5.86-.99,1.72-1.49,2.58-1.88.4-2.94,1.38-2.47,3.46-.53.84-1.06,1.68-1.59,2.52-2.13.19-2.88,2.43-4.66,3.15Z"/>
  <path class="cls-8" d="m212.02,160.12c-4.44-2.91-9.54-.35-14.23-1.78-5.88-1.79-12.26.52-18.14-1.85-1.32-.53-2.57-.32-3.87.16-4.96,1.8-10.46.04-15.38,2.33-1.08.5-2.14-.46-3.18-1.04-3.82-2.12-7.68-3.28-12.29-2.17-2.76.67-6.21,1.62-8.68-1.64-1.36-1.79-2.74-.42-4.28.39-6.9,3.62-14.21,4.36-21.76,2.35-.77-.21-1.64-.68-2.33-.51-10.86,2.67-21.98-.46-32.69,1.16-7.02,1.06-13.69-.98-20.67.04-3.6.53-8.05-.44-12.16-.24-1.81.09-4-.8-5.39-.07-5.68,2.97-10.39.3-15.34-1.86-5.47-2.39-8.04-.59-8.6,5.75-2.61-4.26-4.76-8.76-5.91-13.62-.42-1.75-.74-3.17-2.74-3.5-.07-.65-.14-1.3-.22-1.95,1.36-1.09.73-2.62.89-3.97,5.06-1.64,10.27.4,15.15-.26,6.48-.88,12.56-1.63,19.26-.58,11.57,1.8,23.4,2,35.12,2.87.14,1.99.28,3.99.42,5.98-1.78,2.62-1.15,3.97,2.08,3.95.29.07.58.15.86.24,1.73,2.89,3.45,2.68,5.15-.03.29-.11.6-.17.91-.18,4-1.81,3.97-5.41,3.99-8.99,3.01.33,6.02.66,9.03.99.66,0,1.32,0,1.97,0l.12,1.97c-1.86,2.51-1.6,4.03,1.89,4.02h0c.06,1.39.74,2.07,2.17,1.9,9.56.01,19.12.02,28.69.03,1.63-.01,3.58.74,4.17-1.75,4.37-1.24,7.71-3.9,10.85-7.12,2.17-2.23,2.64-5.63,5.46-7.27,2.16.39,4.02.25,4.67-2.38.54-2.19,1.91-2.06,3.83-1.66,3.52.73,7.14.97,10.68,1.59,3.37.59,7.5,2.09,11.32-.78,2.15-1.61,5.24-.41,6.97,1.87,1.03,1.36,2.46,2.16,3.03.81,1.94-4.6,4.79-2.39,7.62-1.55,1.59.47,3.32.84,4.52-.87.86-1.24,1.98-1.07,3.33-1.28,4.74-.71,8.96,2.28,13.61,1.49-1.5,6.32-2.52,12.81-4.69,18.89-1.24,3.46-2.06,7.49-5.21,10.12Z"/>
  <path class="cls-13" d="m213.91,67.16c-.66-.06-1.67.15-1.93-.21-2.54-3.44-5.9-3.42-9.53-2.49-5.19,1.33-9.85-1.74-15.07-1.82-6.77-.11-13.46.76-20.19.79-5.24.02-10.76-.52-15.63.26-6.76,1.08-13.37-.73-19.91.75-.97.22-2.33.84-2.7-.19-1.76-4.96-5.23-2.49-8.25-2.13-6.06.72-12.17,1.15-18.17,2.22-2.44.44-4.77.35-6.74-.54-3.39-1.52-6.07-2.24-8.64,1.36-1.11,1.55-2.24.32-2.97-1.01-2.44-4.44-5-5.14-8.02-1.38-2.73,3.41-6.41,3.14-8.94,1.98-3.92-1.81-8.3-3-11.74-2.05-6.75,1.85-13.33-.82-19.89.72-4.71,1.1-9.39,1.3-14.15-.45-2.88-1.06-5.35,1.01-7.14,2.99-1.23,1.36-2.26,2.32-4.1,2.2,3.51-7.48,7.78-14.49,12.86-21.01,1.3-.04,1.97-.71,1.99-2.01.04-1.28.69-1.95,1.98-2,3.3-1.04,6.35-1.56,8.94,1.76,3.42,4.39,5.13,4.43,9.16.64,3-2.82,6.2-3.51,10.43-2.93,3.8.52,7.32,3.39,11.01,2.31,7.2-2.11,14.12-2.55,21.58-.94,9.84,2.11,20.02.09,30.03,1.09,2.74.28,6.04-1.35,8.29-.33,7.99,3.63,15.57-.39,23.29-.24,6.3.12,13.42-3.74,18.72,3.26,1.41,1.86,3.44,1.19,5.07-.64,3.6-4.06,8.02-4.93,13.43-4.24,2.76.35,6.42,3.63,8.99-.74.82.02,1.57.2,2,1.01-1.71,5.3-1.25,5.86,4.99,6,1.05.64,1.51,2.26,3.15,1.93.76.41.88,1.13.92,1.89.19,2.16.62,4.12,3.37,4.24.18.65.36,1.29.53,1.94.32,2.52.11,5.35,3.55,6.04.13.65.26,1.31.39,1.96-.32-.02-.64-.02-.96-.01Z"/>
  <path class="cls-2" d="m51.07,18.55c.59-.15,1.19-.29,1.79-.44,1.25.1,2.06-.37,2.19-1.7.56-.12,1.12-.24,1.68-.35,6.73.72,13.19-1.61,19.88-1.74,3.76-.07,7.52.02,11.48-2.58,2.86-1.88,9.14-2.43,12.6,2.4.75,1.05,2.07,1.34,3.17.87,2.39-1.02,4.25-.18,5.85,1.42,2.69,2.71,5.7,2.29,8.06.17,5.01-4.49,10.86-2.4,15.9-1.56,3.97.65,7.72,1.49,11.56.5,6.63-1.71,13.22.57,19.83-.11.51-.05,1.26.54,1.62,1.04,3.54,4.89,9.73,4.8,14.31,7.7.99.7,1.99,1.4,2.98,2.1.62,3.68,4.59,4.82,6,7.9-4.82.27-9.48-1.59-14.34-1.04-1.08.12-2.78.06-2.01-1.75.73-1.69,1.94-3.29-1.16-3.11-1.45.09-4.46-1.66-3.9,2.37.34,2.42-1.73,2.24-3.37,2.54-11.04,2-22.21-.99-33.25.93-.74.13-1.93-.03-2.33-.53-4.64-5.76-10.4-3.06-15.6-1.7-3.17.83-5.93,1.54-9.13.48-2.15-.71-4.41-.67-6.78-.36-3.26.41-6.45,1.68-9.83,1.18-1.3-.19-2.65.07-3.17-1.69-1.51-5.15-4.36-3.72-7.44-1.5-2.83,2.04-6.73,4.8-9.35,3.39-6.04-3.26-11.59.18-17.29-.35-5.7-.54-11.21,2.14-16.95,1.13.04-.59.07-1.18.11-1.76,0,0,.13-.14.13-.14,5.19-1.43,8.59-4.88,10.84-9.62.38-.13.76-.26,1.14-.38.93-.36,1.86-.72,2.79-1.07,1.76-.05,2.03-1.23,2.01-2.64Zm45.79-3.16c-.73.51-2.34.47-2.58,2.11-.19,1.33.82,1.63,1.89,1.61,1.5-.03,2.55-.75,2.65-2.31.06-.94-.57-1.47-1.97-1.4Z"/>
  <path class="cls-7" d="m2.01,95.13c3.57-.58,7.15-1.03,10.51-2.61,2.72-1.28,5.51-1.63,8.66-.65,3.34,1.04,6.92.21,10.28-.73,5.66-1.58,11.39.37,17.1-.46,1.5-.22,2.71-.63,4.05-1.14,2.1-.8,3,.5,3.44,2.38.77,3.34,3.65,2.93,4.84,1.41,4.09-5.25,6.85-2.01,9.95.89.55.51,1.47.62,2.22.92.18,1.45-.57,3.22,1.42,4.04.51,7.32.96,14.64-.22,21.94-2.8.61-3.48-2-5.05-3.28-2.06-1.68-4.3-3.68-5.16.97-.44,2.39-1.39,3-3.12,1-.8-.93-1.65-1.65-2.91-1.64-5.64.02-11.38-.56-16.87.34-3.62.59-6.56.3-9.39-1.56-4.93-3.24-9.39-3.87-13.3,1.48-.38.52-1,.86-1.5,1.3-2.62,2.3-5.13,3.47-6.83-.9-.45-1.14-1.11-1.87-2.13-.96-1.74,1.56-4.19.98-5.96,2.27-.61-.02-1.22-.03-1.82-.05.01-4.65.02-9.3.04-13.95,3.61-2.55,1.13-6.2,1.68-9.31.02-.57.05-1.13.07-1.7Z"/>
  <path class="cls-1" d="m180.98,24.18c-4.59-2.9-10.78-2.81-14.31-7.7-.36-.5-1.11-1.09-1.62-1.04-6.6.68-13.19-1.6-19.83.11-3.84.99-7.59.16-11.56-.5-5.04-.83-10.89-2.93-15.9,1.56-2.35,2.11-5.37,2.53-8.06-.17-1.59-1.61-3.46-2.45-5.85-1.42-1.1.47-2.42.17-3.17-.87-3.47-4.83-9.74-4.28-12.6-2.4-3.96,2.6-7.72,2.51-11.48,2.58-6.69.13-13.15,2.46-19.88,1.74,2.93-5.03,8.57-5.66,13.17-7.62C85.92,1.62,102.79-.89,120.16.27c12.71.85,24.86,4.1,36.68,8.8,7.32,2.91,13.9,7.1,20.42,11.4,1.43.94,3.36,1.6,3.72,3.7Z"/>
  <path class="cls-1" d="m212.02,160.12c3.15-2.62,3.97-6.65,5.21-10.12,2.17-6.08,3.19-12.57,4.69-18.89-.99-7.15,3.29-13.8,1.99-20.98-1.48-7.97-1.1-16.25-3.98-23.99,1.35-3.19-3.31-5.66-1.09-8.96,4.22,6.44,4.83,14,5.84,21.23,3.46,24.92-1.75,48.29-13.8,70.26-.68,1.24-1.43,2.19-2.69,2.76-.93-2.84,1.29-4.72,2.42-6.74.86-1.53,1.4-2.9,1.41-4.57Z"/>
  <path class="cls-1" d="m4.38,144.03c2,.33,2.32,1.75,2.74,3.5,1.16,4.86,3.3,9.36,5.91,13.62,1.7,4.88,4.42,9.22,7.08,13.61,1.06,1.74,3.03,3.09,2.75,5.51-5.5-3.24-7.3-9.22-10.06-14.32-3.73-6.88-7.53-13.88-8.42-21.92Z"/>
  <path class="cls-9" d="m23.06,47.17c-5.08,6.52-9.35,13.53-12.86,21.01-.57.36-1.15.72-1.72,1.09,3.17-9.05,7.35-17.51,14.4-24.26,0,0,.27.26.27.26-.03.64-.06,1.27-.09,1.91Z"/>
  <path class="cls-1" d="m189.96,34.18c-1.42-3.08-5.38-4.22-6-7.9,7.47,4.9,13.33,11.35,18.07,18.87-1.8.26-2.32-2.14-4.07-1.98-.43-.8-1.17-.98-2-1.01.02-4.18-3.47-5.73-6-7.99Z"/>
  <path class="cls-1" d="m197.98,183.14c1.78-.72,2.53-2.96,4.66-3.15-3.77,6.94-8.82,12.62-15.92,16.31,2.87-5.14,8.4-8.01,11.26-13.16Z"/>
  <path class="cls-1" d="m.22,120.09c.61.02,1.22.03,1.82.05-.38,6.22.55,12.22,3.01,17.97-.15,1.36.47,2.89-.89,3.97-3.28-6.98-4.49-14.33-3.94-21.99Z"/>
  <path class="cls-9" d="m45.13,22.65c-2.25,4.74-5.65,8.2-10.84,9.62,2.51-4.45,6.27-7.5,10.84-9.62Z"/>
  <path class="cls-9" d="m27.03,43.16c-1.29.04-1.94.72-1.98,2-.63.03-1.27.07-1.9.1,0,0-.27-.26-.27-.26,2.05-4.47,4.93-8.23,9.28-10.71,0,0,.1.1.1.1-.44,3.7-4.57,5.2-5.23,8.77Z"/>
  <path class="cls-1" d="m22.86,180.29c2.36-.51,2.38,2.43,4.13,2.81.81,3.21,4.98,4.26,5.1,7.92-4.15-2.65-7.89-5.66-9.23-10.73Z"/>
  <path class="cls-12" d="m197.96,43.17c1.75-.16,2.27,2.23,4.07,1.98.78.35.96,1.04,1.03,1.8-.03.74-.07,1.48-.1,2.22-6.24-.14-6.71-.69-4.99-6Z"/>
  <path class="cls-13" d="m7.95,73.09c-.11,3.45.29,7.1-3.57,9.07.4-3.33.96-6.6,3.57-9.07Z"/>
  <path class="cls-1" d="m213.91,67.16c.32-.01.64,0,.96.01,3.09,1.82,2.81,5.19,3.68,8.02-2.95-1.87-3.6-5.07-4.64-8.03Z"/>
  <path class="cls-13" d="m1.93,96.83c-.55,3.11,1.93,6.76-1.68,9.31.32-3.15-1.55-6.69,1.68-9.31Z"/>
  <path class="cls-1" d="m36.1,195.04c3.6.53,5.35,3.19,6.94,6.04-3.58-.56-5.21-3.36-6.94-6.04Z"/>
  <path class="cls-1" d="m214.48,65.21c-3.43-.7-3.22-3.52-3.55-6.04,2.59,1.19,3.07,3.62,3.55,6.04Z"/>
  <path class="cls-13" d="m4.06,85.14c1.6,2.69.74,4.62-1.87,6-.26-2.28.03-4.38,1.87-6Z"/>
  <path class="cls-1" d="m181.97,201.08c.57-2.26,2.13-3.52,4.23-4.24.15,2.98-1.69,3.96-4.23,4.24Z"/>
  <path class="cls-1" d="m210.4,57.23c-2.75-.12-3.18-2.08-3.37-4.24,1.94.76,3.3,1.99,3.37,4.24Z"/>
  <path class="cls-1" d="m202.95,49.17c.03-.74.07-1.48.1-2.22,2.08.6,2.52,2.41,3.05,4.16-1.64.33-2.1-1.29-3.15-1.93Z"/>
  <path class="cls-1" d="m204.23,177.48c-.47-2.08.59-3.06,2.47-3.46.52,2.11-.82,2.9-2.47,3.46Z"/>
  <path class="cls-1" d="m51.07,18.55c.02,1.41-.25,2.59-2.01,2.64,0-.33,0-.66-.01-.99.19-1.15.67-1.93,2.02-1.65Z"/>
  <path class="cls-9" d="m49.05,20.21c0,.33,0,.66.01.99-.93.36-1.86.72-2.79,1.07-.04-1.99,1.36-2.05,2.78-2.06Z"/>
  <path class="cls-9" d="m34.16,32.42c-.04.59-.07,1.18-.11,1.76-.6.07-1.19.14-1.79.22,0,0-.1-.1-.1-.1.05-1.28.61-2.03,2-1.88Z"/>
  <path class="cls-1" d="m55.05,16.41c-.13,1.34-.94,1.8-2.19,1.7.2-1.25.87-1.89,2.19-1.7Z"/>
  <path class="cls-1" d="m32.12,191.03c1.31.05,1.88.8,1.93,2.04-1.4.03-1.93-.75-1.93-2.04Z"/>
  <path class="cls-1" d="m34.06,193.07c1.32-.02,1.93.7,2.02,1.95-1.39.09-1.91-.72-2.02-1.95Z"/>
  <path class="cls-4" d="m154.19,107.14c-.14-1.3-.28-2.6-.42-3.9,1.95-1.76,1.36-2.71-.99-3.09-.37-1.28-.75-2.56-1.12-3.84,2.82-3.93-.24-4.39-2.98-5.05-.37-.64-.74-1.27-1.11-1.91,3.93-6.59,10.42-3.77,15.76-3.73,6.53.05,13.05.94,19.65.65,5.18-.23,10.41.58,15.61.56,4.37-.02,8.63-1.61,13.13-.76,2.67.51,5.47,1.5,8.22.08,2.88,7.74,2.5,16.02,3.98,23.99-4.55-1.78-8.83-6.39-14.07-1.22-.49.49-2.01.32-2.87-.01-3.06-1.18-6.22-.68-9.34-.76-2.13-.05-4.13.29-5.17-2.53-.69-1.88-3.25-1.43-3.01.3.58,4.28-2.17,3.18-4.2,3.19-6.54.02-12.98,1.14-19.65.34-3.94-.47-7.45-2.45-11.41-2.3Z"/>
  <path class="cls-4" d="m99.19,84.14c-.13,7-.25,14-.38,21-4.14.95-6.67-3.87-10.79-3.01,0-5.66,0-11.31-.01-16.97,3.59-1.81,7.3-2.36,11.18-1.02Z"/>
  <path class="cls-9" d="m88.01,85.16c0,5.66,0,11.31.01,16.97,0,7.99,0,15.99-.01,23.98,0,5,0,9.99,0,14.99-.02,3.58,0,7.17-3.99,8.99,1.59-4.77,2.1-9.65,2.05-14.7-.14-13.65-.04-27.3-.02-40.95,0-3.81.13-7.62-.73-11.37,1.42.03,1.69,1.54,2.7,2.09Z"/>
  <path class="cls-9" d="m132,81.12c-9.66,0-19.33.02-28.99.03.2-1.72,1.37-2.02,2.83-2.02,7.76.02,15.52.03,23.28.01,1.45,0,2.65.25,2.87,1.98Z"/>
  <path class="cls-9" d="m74.79,88.09c.24,3.7.79,7.42-.32,11.08-1.99-.81-1.23-2.59-1.42-4.04.68-2.32-1.62-5.38,1.73-7.05Z"/>
  <path class="cls-9" d="m79.22,79.28c-1.05,1.93-2.57,3.45-4.22,4.86-1.51-4.16,1.31-4.55,4.22-4.86Z"/>
  <path class="cls-9" d="m84.92,81.33c-1.43-.08-2.72-.37-3.09-2.04,1.62-.21,3.13-.25,3.09,2.04Z"/>
  <path class="cls-5" d="m154.19,107.14c3.96-.14,7.47,1.83,11.41,2.3,6.67.8,13.11-.32,19.65-.34,2.03,0,4.78,1.09,4.2-3.19-.24-1.73,2.32-2.18,3.01-.3,1.05,2.83,3.04,2.48,5.17,2.53,3.12.08,6.27-.42,9.34.76.86.33,2.38.5,2.87.01,5.24-5.17,9.52-.56,14.07,1.22,1.3,7.18-2.98,13.83-1.99,20.98-4.65.79-8.87-2.2-13.61-1.49-1.36.2-2.47.04-3.33,1.28-1.2,1.72-2.92,1.35-4.52.87-2.83-.84-5.68-3.05-7.62,1.55-.57,1.34-2,.55-3.03-.81-1.72-2.28-4.82-3.49-6.97-1.87-3.82,2.87-7.95,1.37-11.32.78-3.54-.62-7.16-.86-10.68-1.59-1.92-.4-3.29-.53-3.83,1.66-.65,2.62-2.51,2.76-4.67,2.38.15-1.26.29-2.52.45-3.79,1.53-.21,2.86-.51.83-2.11.19-6.95.37-13.89.56-20.84Z"/>
  <path class="cls-10" d="m74.25,121.11c-.33,6.35,1.29,12.66.34,19.02-11.72-.87-23.55-1.07-35.12-2.87-6.7-1.04-12.77-.29-19.26.58-4.88.66-10.09-1.38-15.15.26-2.46-5.75-3.38-11.75-3.01-17.97,1.77-1.29,4.22-.7,5.96-2.27,1.01-.91,1.68-.19,2.13.96,1.71,4.37,4.21,3.19,6.83.9.5-.44,1.12-.78,1.5-1.3,3.91-5.35,8.37-4.72,13.3-1.48,2.82,1.86,5.76,2.15,9.39,1.56,5.5-.9,11.24-.31,16.87-.34,1.26,0,2.11.71,2.91,1.64,1.72,2,2.67,1.39,3.12-1,.86-4.65,3.1-2.65,5.16-.97,1.57,1.28,2.25,3.89,5.05,3.28Z"/>
  <path class="cls-10" d="m88,141.11c0-5,0-9.99,0-14.99,3.84.03,8.04-.83,9.97,3.98-1.82,3.88-.63,8-.95,12-3.01-.33-6.02-.66-9.03-.99Z"/>
  <path class="cls-1" d="m97.03,142.1c.32-4-.88-8.12.95-12,0,0,.5,0,.5,0h.5c.01,4.01.02,8.01.04,12.02-.66,0-1.32,0-1.97,0Z"/>
  <path class="cls-1" d="m99.13,144.08c.96,1.18,1.73,2.46,1.89,4.02-3.5.01-3.75-1.51-1.89-4.02Z"/>
  <path class="cls-9" d="m75,146.11c1.28,1.01,1.92,2.36,2.08,3.95-3.24.02-3.86-1.33-2.08-3.95Z"/>
  <path class="cls-9" d="m77.94,150.31c1.72-.01,3.43-.02,5.15-.03-1.7,2.71-3.42,2.92-5.15.03Z"/>
  <path class="cls-1" d="m131.87,150.03c.59-2.49,2.53-1.76,4.17-1.75-.59,2.49-2.54,1.74-4.17,1.75Z"/>
  <path class="cls-1" d="m101.02,148.1c1.28,0,2.01.62,2.17,1.9-1.43.17-2.11-.51-2.17-1.9Z"/>
  <path class="cls-12" d="m32.26,34.4c.6-.07,1.19-.14,1.79-.22,5.75,1.01,11.25-1.67,16.95-1.13,5.7.54,11.24-2.9,17.29.35,2.62,1.41,6.52-1.35,9.35-3.39,3.09-2.23,5.93-3.66,7.44,1.5.52,1.76,1.87,1.5,3.17,1.69,3.39.5,6.57-.77,9.83-1.18,2.38-.3,4.64-.35,6.78.36,3.2,1.06,5.96.35,9.13-.48,5.19-1.36,10.96-4.06,15.6,1.7.4.49,1.58.65,2.33.53,11.04-1.92,22.21,1.07,33.25-.93,1.65-.3,3.71-.13,3.37-2.54-.56-4.03,2.45-2.29,3.9-2.37,3.1-.19,1.89,1.42,1.16,3.11-.78,1.8.93,1.87,2.01,1.75,4.86-.55,9.52,1.32,14.34,1.04,2.53,2.26,6.02,3.81,6,7.99-2.57,4.37-6.22,1.09-8.99.74-5.41-.69-9.83.18-13.43,4.24-1.62,1.83-3.66,2.5-5.07.64-5.31-6.99-12.42-3.13-18.72-3.26-7.72-.15-15.31,3.86-23.29.24-2.24-1.02-5.54.61-8.29.33-10.01-1.01-20.19,1.02-30.03-1.09-7.46-1.6-14.38-1.17-21.58.94-3.69,1.08-7.21-1.79-11.01-2.31-4.23-.58-7.43.11-10.43,2.93-4.03,3.79-5.75,3.75-9.16-.64-2.59-3.32-5.64-2.81-8.94-1.76.66-3.57,4.79-5.06,5.23-8.77Z"/>
  <path class="cls-12" d="m23.15,45.26c.63-.03,1.27-.07,1.9-.1-.02,1.3-.69,1.97-1.99,2.01.03-.64.06-1.27.09-1.91Z"/>
  <path class="cls-1" d="m96.86,15.39c1.4-.07,2.03.47,1.97,1.4-.1,1.56-1.15,2.28-2.65,2.31-1.07.02-2.08-.27-1.89-1.61.24-1.63,1.85-1.6,2.58-2.11Z"/>
  <path class="cls-4" d="m110.99,115.46c0-6.98.07-13.95-.03-20.93-.05-3.14,1.17-4.36,4.4-4.51,5.04-.22,10.15.2,14.74,1.66,6.62,2.1,10.44,7.83,11.33,14.55.99,7.48,1.71,15.09-1.16,22.56-2.66,6.93-8.02,9.84-14.71,11.25-.16.03-.33.02-.5.03q-14.12.81-14.1-13.16c0-3.82,0-7.64,0-11.46h.03Z"/>
  <path class="cls-5" d="m98.97,130.1h-.5s-.5,0-.5,0c-1.93-4.81-6.13-3.95-9.97-3.98,0-7.99,0-15.99.01-23.98,4.12-.86,6.65,3.95,10.79,3.01.05,8.32.11,16.64.16,24.96Z"/>
  <path class="cls-3" d="m148.68,91.26c2.74.65,5.8,1.11,2.98,5.05-1.72-1.25-2.28-3.19-2.98-5.05Z"/>
  <path class="cls-3" d="m152.78,100.15c2.35.38,2.94,1.33.99,3.09-1.04-.8-1.01-1.95-.99-3.09Z"/>
  <path class="cls-3" d="m153.63,127.98c2.02,1.61.7,1.9-.83,2.11-.01-.82.08-1.6.83-2.11Z"/>
</svg>