<?xml version="1.0" encoding="UTF-8"?>
<svg id="Calque_1" data-name="Calque 1" xmlns="http://www.w3.org/2000/svg" viewBox="0 0 119.17 109.4">
  <defs>
    <style>
      .cls-1 {
        fill: #1986fe;
      }

      .cls-1, .cls-2 {
        stroke-width: 0px;
      }

      .cls-2 {
        fill: #1383fd;
      }
    </style>
  </defs>
  <path class="cls-1" d="m59.39,0c15.3,0,30.6-.02,45.91,0,9.34.01,13.78,4.31,13.68,13.57-.04,4.24,1,8.63-1.46,12.67-.78,1.29-1.36,3.03-2.7,3.4-5.83,1.6-4.85,6.16-4.85,10.36,0,17.13.05,34.26-.03,51.39-.05,12.23-5.78,17.94-17.98,17.96-21.62.05-43.25.05-64.87,0-12.19-.03-17.96-5.53-18.11-17.78-.21-17.96-.09-35.92-.06-53.88,0-3.06-.37-5.11-3.59-7.19C-2.58,25.37.67,16.8.61,9.47c-.04-4.64,3.35-7.2,7.48-8.84C9.89-.09,11.68.03,13.49.02,28.79,0,44.09,0,59.39,0Zm-.42,32.06c-11.97,0-23.94.15-35.9-.08-4.18-.08-5.84.88-5.77,5.48.26,17.61.09,35.23.12,52.85.01,8.21,2.91,11.17,10.97,11.18,20.61.03,41.22.02,61.84,0,8.23,0,10.85-2.49,10.89-10.59.07-17.78-.1-35.57.12-53.35.05-4.52-1.66-5.64-5.86-5.57-12.13.22-24.27.08-36.4.08Zm.05-8.15c14.81,0,29.62.02,44.43,0,6.13,0,6.37-.29,6.43-6.56.01-1-.08-2,.02-2.99.43-4.43-1.77-5.77-5.93-5.76-29.79.09-59.57.02-89.36.07-5.09,0-6.13,1.48-5.98,7.93.09,3.93.05,7.55,5.96,7.42,14.8-.31,29.62-.1,44.43-.1Z"/>
  <path class="cls-2" d="m59.17,55.66c-6.15,0-12.3-.06-18.45.02-3.22.04-5.01-1.21-5.14-4.58-.13-3.55,1.55-5.25,5.05-5.25,12.63,0,25.27.02,37.9-.01,3.35,0,4.91,1.74,4.9,4.91,0,3.44-1.73,5.04-5.31,4.95-6.31-.15-12.63-.04-18.95-.04Z"/>
</svg>